<?xml version="1.0" encoding="UTF-8" standalone="no"?>
<!-- Created with Inkscape (http://www.inkscape.org/) -->

<svg
   width="94.737526mm"
   height="63.242908mm"
   viewBox="0 0 94.737526 63.242908"
   version="1.1"
   id="svg1"
   inkscape:version="1.4 (86a8ad7, 2024-10-11)"
   sodipodi:docname="logo.svg"
   xmlns:inkscape="http://www.inkscape.org/namespaces/inkscape"
   xmlns:sodipodi="http://sodipodi.sourceforge.net/DTD/sodipodi-0.dtd"
   xmlns="http://www.w3.org/2000/svg"
   xmlns:svg="http://www.w3.org/2000/svg">
  <sodipodi:namedview
     id="namedview1"
     pagecolor="#ffffff"
     bordercolor="#000000"
     borderopacity="0.25"
     inkscape:showpageshadow="2"
     inkscape:pageopacity="0.0"
     inkscape:pagecheckerboard="0"
     inkscape:deskcolor="#d1d1d1"
     inkscape:document-units="mm"
     inkscape:zoom="0.49264169"
     inkscape:cx="186.7483"
     inkscape:cy="185.73337"
     inkscape:window-width="1280"
     inkscape:window-height="697"
     inkscape:window-x="-8"
     inkscape:window-y="-8"
     inkscape:window-maximized="1"
     inkscape:current-layer="layer1" />
  <defs
     id="defs1" />
  <g
     inkscape:label="Capa 1"
     inkscape:groupmode="layer"
     id="layer1"
     transform="translate(-55.171455,-99.349355)">
    <g
       id="g2"
       transform="translate(0.00969751,-9.0880398)">
      <path
         style="fill:#cbcbcb"
         d="m 55.929369,170.85787 -0.767611,-0.82173 v -12.08398 c 0,-10.95227 0.04223,-12.14525 0.450878,-12.73816 0.873165,-1.26689 1.018627,-1.29838 6.038688,-1.30723 6.943556,-0.0122 6.739601,-0.27597 6.739601,8.71434 v 6.09391 h 4.365625 4.365625 v -18.52083 -18.52084 h -3.20116 c -5.450365,0 -5.79519,-0.40393 -5.793684,-6.78686 8.78e-4,-3.72431 0.06008,-4.29027 0.529288,-5.05984 0.290564,-0.47657 0.833652,-0.98258 1.20686,-1.12448 0.39256,-0.14925 4.474041,-0.25798 9.683629,-0.25798 h 9.005068 l 0.899583,0.89958 0.899583,0.89958 v 29.67293 c 0,31.92981 0.0484,30.76484 -1.308261,31.4909 -0.332946,0.17819 -6.015647,0.27242 -16.427567,0.27242 H 56.696981 Z m 43.874115,0.48433 c -0.07522,-0.19603 -0.336858,-1.65882 -0.581409,-3.25065 -0.439148,-2.8585 -0.43749,-2.91874 0.134296,-4.87861 0.642884,-2.20357 1.111179,-8.92433 0.986319,-14.15521 l -0.0695,-2.91042 -2.439147,-0.13229 c -2.780332,-0.1508 -3.212529,-0.40479 -3.427176,-2.01412 -0.106,-0.79474 -0.0068,-1.194 0.436373,-1.75619 0.31546,-0.40018 0.743515,-0.72761 0.951234,-0.72761 0.272506,0 0.377672,-0.33932 0.377672,-1.21857 0,-0.92783 -0.164943,-1.4146 -0.691295,-2.04014 L 94.789555,137.43683 94.9062,123.9327 c 0.09024,-10.44752 0.195651,-13.6671 0.465695,-14.22409 0.586678,-1.21009 1.55109,-1.34858 7.886915,-1.13261 5.49384,0.18727 5.72114,0.21652 6.31757,0.81295 l 0.61868,0.61868 -0.0193,12.64588 c -0.0106,6.95524 -0.11082,13.29031 -0.22267,14.07794 -0.13887,0.97797 -0.38443,1.57869 -0.77443,1.8945 -0.43024,0.34838 -0.56857,0.74563 -0.5609,1.61065 0.009,1.00051 0.1195,1.21676 0.8599,1.68113 0.72421,0.45421 0.86127,0.70948 0.928,1.7284 0.0658,1.00439 -0.0327,1.29985 -0.61628,1.84834 -0.61081,0.57411 -0.97922,0.66399 -3.05486,0.74531 l -2.36028,0.0925 v 7.5143 c 0,4.17031 0.10398,7.5143 0.23367,7.5143 0.42694,0 1.17641,3.86984 0.98454,5.08369 -0.0986,0.62371 -0.32372,2.02699 -0.50029,3.1184 l -0.32105,1.98437 -2.41544,0.0756 c -1.8352,0.0575 -2.448291,-0.01 -2.552206,-0.28076 z m 15.621306,-0.43464 -0.86407,-0.77205 V 140.0619 109.98828 l 0.86407,-0.77205 0.86407,-0.77204 h 15.72933 15.72932 l 0.93525,0.82115 0.93525,0.82116 v 4.80851 c 0,5.25765 -0.0866,5.60534 -1.59042,6.38298 -0.63794,0.32989 -2.38788,0.39536 -10.56727,0.39536 h -9.80273 v 18.52084 18.52083 h 10.12759 c 11.22929,0 10.98374,-0.0366 11.72849,1.74587 0.51415,1.23053 0.51415,8.24231 0,9.47284 -0.7668,1.83522 0.12426,1.74587 -17.41286,1.74587 h -15.81195 z"
         id="path7" />
      <path
         style="fill:#b3b3b3"
         d="m 56.418523,171.39383 c -1.222718,-0.71217 -1.256765,-1.08469 -1.256765,-13.75046 v -11.94585 l 0.899583,-0.89958 0.899583,-0.89959 h 4.768606 4.768606 l 0.814103,0.81411 0.814102,0.8141 v 6.59423 6.59423 h 4.630209 4.630209 V 140.22421 121.7334 l -3.704647,-0.10174 -3.704647,-0.10173 -0.859416,-0.85942 -0.859416,-0.85942 v -4.69126 c 0,-4.13745 0.05811,-4.77694 0.492225,-5.417 0.815517,-1.2024 1.699131,-1.29742 11.237583,-1.20854 l 8.819392,0.0822 0.771754,0.86407 0.771755,0.86407 v 29.70258 c 0,27.13415 -0.03767,29.75915 -0.435584,30.35676 -0.912782,1.37087 -0.195799,1.31618 -17.143632,1.3076 -10.300284,-0.005 -16.053469,-0.10292 -16.353603,-0.27773 z m 43.368936,-0.30954 c -0.08044,-0.32742 -0.330645,-1.74977 -0.556019,-3.16077 -0.371973,-2.32883 -0.371119,-2.71931 0.0093,-4.23334 0.230467,-0.91733 0.586831,-1.93157 0.79192,-2.25387 0.29799,-0.46831 0.37289,-2.07584 0.37289,-8.00365 v -7.41764 h -2.269313 c -2.155408,0 -2.30813,-0.0388 -3.042708,-0.7734 -1.170022,-1.17002 -0.987174,-2.59197 0.447304,-3.47852 0.801039,-0.49507 0.895965,-0.67848 0.895965,-1.73109 0,-0.81505 -0.12514,-1.22537 -0.40666,-1.3334 -0.223664,-0.0858 -0.580851,-0.4929 -0.79375,-0.9046 -0.442921,-0.85651 -0.516607,-8.06397 -0.210928,-20.63149 0.172218,-7.08044 0.189724,-7.25619 0.781724,-7.84819 0.595866,-0.59587 0.702841,-0.60556 6.681366,-0.60556 3.34169,0 6.26854,0.074 6.5041,0.16435 1.10278,0.42318 1.20248,1.26055 1.20248,10.09871 0,4.6405 -0.0792,10.80204 -0.17599,13.69232 -0.16932,5.05558 -0.19945,5.2768 -0.79375,5.82758 -0.4761,0.44123 -0.61776,0.85375 -0.61776,1.79894 0,0.67454 0.10168,1.22643 0.22595,1.22643 0.12427,0 0.54099,0.29197 0.92604,0.64883 0.9382,0.86949 0.96068,2.28964 0.0507,3.19966 -0.59379,0.59379 -0.85447,0.64943 -3.0427,0.64943 h -2.39328 v 7.6573 c 0,4.21152 0.10472,7.72202 0.2327,7.80112 0.12799,0.0791 0.44073,1.02717 0.69498,2.10682 0.49354,2.09574 0.52562,1.67772 -0.56569,7.37174 l -0.13945,0.7276 h -2.33155 c -2.19817,0 -2.339908,-0.0341 -2.477792,-0.59531 z m 16.021241,0.18238 c -1.44573,-1.01263 -1.38035,0.46893 -1.37928,-31.25778 9.7e-4,-28.83311 0.01,-29.33001 0.52928,-30.18224 0.29057,-0.47657 0.84088,-0.98533 1.22292,-1.13058 0.44176,-0.16796 6.37308,-0.23779 16.29358,-0.19184 l 15.59895,0.0722 0.77193,0.86407 0.77193,0.86407 v 4.74357 c 0,4.53841 -0.0257,4.77342 -0.59531,5.43364 -0.32904,0.3814 -1.0687,0.79939 -1.65365,0.93448 -0.58208,0.13443 -5.25528,0.24726 -10.38489,0.25073 l -9.32657,0.006 v 18.52084 18.52083 h 9.93502 c 10.5801,0 11.08276,0.0559 11.75297,1.30826 0.15784,0.29493 0.27243,2.50777 0.27243,5.26095 v 4.75191 l -0.76761,0.82173 -0.76761,0.82173 h -15.84227 c -13.92766,0 -15.91352,-0.0499 -16.43182,-0.41293 z"
         id="path6" />
      <path
         style="fill:#8f8f8f"
         d="m 56.595852,171.37678 c -0.302654,-0.14686 -0.749138,-0.60366 -0.992187,-1.01511 -0.395268,-0.66913 -0.441907,-2.01016 -0.441907,-12.70612 v -11.95803 l 0.899583,-0.89958 0.899583,-0.89959 h 4.54177 c 6.936704,0 6.609969,-0.40822 6.617764,8.26823 l 0.0059,6.54844 h 4.631996 4.631995 l -0.06793,-18.58698 -0.06793,-18.58698 -3.794105,-0.13229 c -3.759041,-0.13107 -3.799999,-0.13915 -4.431771,-0.87465 -0.62358,-0.72596 -0.637666,-0.84936 -0.637666,-5.58632 v -4.84396 l 0.691112,-0.69111 c 0.380111,-0.38011 1.064721,-0.75974 1.521354,-0.84362 0.456633,-0.0839 4.73944,-0.11653 9.517348,-0.0726 l 8.687107,0.0799 0.771748,0.86407 0.771748,0.86407 v 29.65448 c 0,27.19259 -0.03658,29.71641 -0.440603,30.40036 -0.242331,0.41024 -0.724184,0.87509 -1.070783,1.03302 -0.839843,0.38265 -31.453862,0.36775 -32.244104,-0.0157 z m 43.275676,0.23668 c -0.0026,-0.0364 -0.230566,-1.45866 -0.506485,-3.16061 -0.489324,-3.01831 -0.489629,-3.14128 -0.01238,-4.99666 0.26911,-1.04621 0.616091,-2.029 0.771067,-2.18397 0.18604,-0.18604 0.28178,-2.82586 0.28178,-7.76949 v -7.48771 h -2.234205 c -1.94012,0 -2.32325,-0.0784 -2.9107,-0.59531 -1.035781,-0.91148 -1.138564,-2.03913 -0.278976,-3.0607 0.389631,-0.46305 0.87643,-0.84191 1.081775,-0.84191 0.552675,0 0.521887,-2.60544 -0.0333,-2.81849 -1.132553,-0.4346 -1.161883,-0.8838 -0.99173,-15.18858 l 0.161635,-13.58856 0.606351,-0.60635 c 0.597115,-0.59711 0.699544,-0.60635 6.72415,-0.60635 h 6.1178 l 0.7734,0.7734 0.77339,0.77339 -4.6e-4,5.51046 c -2.6e-4,3.03075 -0.0793,9.18569 -0.17566,13.67763 -0.17269,8.05047 -0.18402,8.17767 -0.79328,8.90174 -0.43163,0.51296 -0.6181,1.06763 -0.6181,1.83861 0,0.91903 0.15519,1.25042 0.92604,1.97742 1.14872,1.08339 1.24795,2.23283 0.27661,3.20417 -0.59379,0.59379 -0.85447,0.64943 -3.0427,0.64943 h -2.39328 v 7.62 c 0,4.191 0.10266,7.73311 0.22814,7.87136 0.12548,0.13824 0.43039,1.07863 0.67759,2.08975 0.43602,1.78343 0.43205,1.93176 -0.13258,4.96094 l -0.58204,3.12253 h -2.34451 c -1.28949,0 -2.346689,-0.0298 -2.349337,-0.0661 z m 15.594882,-0.70725 c -0.42537,-0.42537 -0.78211,-0.93139 -0.79275,-1.12448 -0.0106,-0.1931 -0.0282,-13.63131 -0.0391,-29.86269 -0.0148,-22.16337 0.0579,-29.65652 0.29177,-30.09362 0.75709,-1.41463 0.60962,-1.40349 17.51807,-1.32318 l 15.62975,0.0742 0.77191,0.86407 0.7719,0.86407 v 4.73797 4.73797 l -0.8141,0.81411 -0.8141,0.8141 H 137.8237 127.65759 v 18.65313 18.65312 h 9.93502 c 10.5801,0 11.08276,0.0559 11.75297,1.30826 0.15784,0.29493 0.27243,2.50777 0.27243,5.26095 v 4.75191 l -0.76761,0.82173 -0.76761,0.82173 H 132.1613 116.2398 Z"
         id="path5" />
      <path
         style="fill:#707070"
         d="m 56.061341,170.78002 -0.899583,-0.89958 9.89e-4,-11.86657 c 9.49e-4,-11.39343 0.02205,-11.90111 0.529288,-12.73305 0.290565,-0.47657 0.833652,-0.98258 1.20686,-1.12448 0.373209,-0.14189 2.647248,-0.25799 5.053421,-0.25799 h 4.374859 l 0.899583,0.89959 0.899583,0.89958 v 6.50875 6.50875 h 4.630209 4.630209 V 140.0619 121.40877 h -3.72452 -3.724519 l -0.773398,-0.7734 -0.773397,-0.7734 v -4.77867 -4.77868 l 0.771727,-0.86407 0.771728,-0.86407 8.959412,-0.0818 c 5.732694,-0.0523 9.218641,0.0167 9.679193,0.19184 0.39588,0.15052 0.957515,0.66358 1.24808,1.14015 0.519681,0.85236 0.528315,1.34928 0.529288,30.46014 l 9.89e-4,29.59365 -0.899583,0.89958 -0.899583,0.89958 H 72.75655 56.960924 Z m 59.405069,0.12619 c -0.42537,-0.42537 -0.78025,-1.05045 -0.78863,-1.38907 -0.008,-0.33861 -0.0268,-13.77792 -0.0409,-29.86513 -0.0239,-27.24647 0.005,-29.29705 0.42956,-29.94427 0.25039,-0.38214 0.82234,-0.82277 1.27102,-0.97917 1.0973,-0.38253 29.84391,-0.39084 31.21864,-0.009 0.56833,0.15785 1.20811,0.59165 1.52135,1.03156 0.49237,0.69146 0.54057,1.15227 0.54057,5.16748 0,4.56322 -0.11863,5.18144 -1.15544,6.0213 -0.51243,0.41508 -1.49539,0.45767 -10.68466,0.46302 l -10.12032,0.006 v 18.65313 18.65312 h 9.9953 c 12.91652,0 11.9471,-0.52583 11.95082,6.48229 0.003,5.11605 -0.0817,5.46671 -1.48966,6.18674 -0.40639,0.20784 -5.22223,0.29555 -16.22608,0.29555 H 116.2398 Z m -15.720944,-0.35108 c -0.83133,-4.61632 -0.858107,-5.20623 -0.325108,-7.16244 0.284658,-1.04475 0.622772,-1.93923 0.751352,-1.98774 0.12859,-0.0485 0.2338,-3.51924 0.2338,-7.71274 v -7.62454 l -2.353855,-0.0925 c -2.58273,-0.10146 -3.297372,-0.45397 -3.544847,-1.74856 -0.191842,-1.00355 0.218582,-1.86989 1.132136,-2.38974 0.69541,-0.39572 0.794678,-0.59874 0.796142,-1.62824 0.0013,-0.91787 -0.15477,-1.33943 -0.71074,-1.91974 l -0.712414,-0.7436 0.07309,-13.53322 c 0.0402,-7.44327 0.17649,-13.80519 0.302873,-14.1376 0.406747,-1.06983 1.001926,-1.16573 7.234425,-1.16573 5.91282,0 5.96112,0.005 6.69812,0.63801 l 0.74236,0.63801 v 3.66147 c 0,2.01381 -0.0298,8.22477 -0.0661,13.80213 l -0.0662,10.14067 -0.79375,0.79375 c -0.63897,0.63897 -0.79375,1.01848 -0.79375,1.94619 0,0.915 0.10761,1.1866 0.52226,1.3182 0.71783,0.22783 1.59441,1.4012 1.59441,2.13424 0,0.33302 -0.30824,0.9718 -0.68498,1.41953 -0.66884,0.79487 -0.73956,0.81405 -3.0015,0.81405 h -2.31653 l -0.15543,7.46914 c -0.0969,4.65543 -0.0592,7.58515 0.10015,7.77709 0.14057,0.16938 0.49068,1.15632 0.77801,2.1932 0.52103,1.88021 0.52101,1.89309 -0.009,4.83688 -0.29232,1.62341 -0.53149,2.99036 -0.53149,3.03767 0,0.0473 -1.06616,0.086 -2.36926,0.086 h -2.369255 z"
         id="path4" />
      <path
         style="fill:#515151"
         d="m 56.061341,170.78002 -0.899583,-0.89958 v -11.81356 c 0,-12.99625 -0.0057,-12.94779 1.612051,-13.78435 0.666063,-0.34443 1.606025,-0.40378 5.309508,-0.33521 l 4.500164,0.0833 0.77143,0.86407 0.77143,0.86407 v 6.47811 6.47812 h 4.630209 4.630209 V 140.0619 121.40877 h -3.72452 -3.724519 l -0.773398,-0.7734 -0.773397,-0.7734 v -4.8032 -4.80321 l 0.737788,-0.73778 0.737789,-0.73779 8.862784,-0.19515 c 7.64716,-0.16839 8.99517,-0.13984 9.827973,0.20813 1.927587,0.8054 1.808782,-1.36859 1.731316,31.68094 l -0.06952,29.66168 -0.86407,0.772 -0.86407,0.77201 H 72.725917 56.960924 Z m 59.399279,0.0778 -0.76761,-0.82173 -0.0662,-25.57045 c -0.0943,-36.45493 -0.11821,-33.73016 0.30289,-34.51554 0.80486,-1.50112 0.64716,-1.48884 17.23486,-1.34268 8.36244,0.0737 15.47603,0.18934 15.80796,0.25702 0.33194,0.0677 0.83751,0.50682 1.12349,0.97586 0.46203,0.75777 0.52008,1.3456 0.52096,5.27536 l 9.9e-4,4.42256 -0.82116,0.93525 -0.82116,0.93525 h -10.15905 -10.15905 v 18.64413 18.64413 l 10.2084,0.0751 10.20839,0.0751 0.77182,0.86407 0.77181,0.86407 v 4.51907 c 0,4.90054 -0.19097,5.69634 -1.51138,6.29796 -0.43038,0.19609 -5.58386,0.28712 -16.25429,0.28712 H 116.22818 Z M 99.731031,170.1582 c -0.09776,-0.69122 -0.32546,-2.06388 -0.506011,-3.05035 -0.293155,-1.60171 -0.272581,-1.99799 0.192312,-3.70417 0.286323,-1.05082 0.625798,-1.95027 0.754378,-1.99878 0.12859,-0.0485 0.2338,-3.53108 0.2338,-7.73906 v -7.65087 h -1.997515 c -2.31406,0 -3.385206,-0.43239 -3.748851,-1.51331 -0.360443,-1.07141 -0.03599,-1.9854 0.918593,-2.58773 0.739011,-0.4663 0.839849,-0.67299 0.84883,-1.73982 0.0081,-0.95718 -0.128297,-1.34075 -0.651266,-1.83206 l -0.661458,-0.6214 v -13.59732 c 0,-13.93951 0.02472,-14.29949 1.035405,-15.07547 0.525636,-0.40357 11.549632,-0.47035 12.586212,-0.0762 1.32585,0.50409 1.35837,0.90298 1.24922,15.32512 l -0.10096,13.33906 -0.77035,0.77035 c -0.61494,0.61494 -0.77036,1.00286 -0.77036,1.9228 0,0.915 0.10761,1.1866 0.52226,1.3182 0.73357,0.23283 1.59441,1.40708 1.59441,2.1749 0,0.36136 -0.34086,0.98698 -0.7734,1.41952 -0.73234,0.73234 -0.89168,0.7734 -3.00116,0.7734 h -2.22776 l -0.17384,4.40788 c -0.2521,6.39201 -0.21675,10.87932 0.0865,10.98205 0.14318,0.0485 0.49228,0.97245 0.77578,2.0532 0.5101,1.94466 0.51014,1.99381 0.004,4.74739 -0.28116,1.53031 -0.5112,2.87848 -0.5112,2.99593 0,0.11745 -1.06426,0.21355 -2.36504,0.21355 h -2.365034 z"
         id="path3" />
      <path
         style="fill:#2f2f2f"
         d="m 56.542035,171.26667 c -1.366962,-0.95746 -1.380277,-1.08616 -1.380277,-13.34076 0,-12.82715 0.01375,-12.9349 1.743356,-13.65758 0.768352,-0.32104 1.869151,-0.38746 5.32352,-0.32121 l 4.35487,0.0835 0.771419,0.86407 0.771418,0.86407 v 6.47811 6.47812 h 4.630209 4.630209 V 140.0619 121.40877 H 73.702944 70.01913 l -0.814103,-0.8141 -0.814102,-0.81411 v -4.7625 -4.7625 l 0.733219,-0.73322 0.73322,-0.73321 8.623604,-0.19234 c 9.725705,-0.21691 10.510609,-0.13049 11.352285,1.24991 0.503545,0.82583 0.516135,1.56023 0.5171,30.16219 8.6e-4,25.49248 -0.05057,29.41545 -0.394375,30.08029 -0.861066,1.66512 -0.05326,1.59042 -17.199428,1.59042 -13.730746,0 -15.696437,-0.0501 -16.214515,-0.41293 z m 59.587575,0.15769 c -0.30127,-0.12193 -0.74776,-0.52692 -0.99219,-0.89996 -0.40953,-0.62502 -0.44441,-3.02188 -0.44441,-30.53599 v -29.85772 l 0.81169,-0.77711 0.81169,-0.7771 15.79091,0.0964 c 8.82893,0.0539 15.99385,0.20317 16.2512,0.33857 1.04942,0.55212 1.25951,1.58514 1.25951,6.19292 v 4.40522 l -0.89958,0.89959 -0.89959,0.89958 h -10.08062 -10.08063 v 18.64413 18.64413 l 10.2084,0.0751 10.20839,0.0751 0.77182,0.86407 0.77181,0.86407 v 4.6525 4.65249 l -0.89958,0.89958 -0.89959,0.89958 -15.57073,-0.0168 c -8.5639,-0.009 -15.81722,-0.11653 -16.1185,-0.23847 z M 99.473265,168.3689 c -0.463253,-2.95495 -0.462782,-3.10541 0.01575,-5.02708 0.271312,-1.08953 0.588515,-1.98097 0.704895,-1.98097 0.11638,0 0.2116,-3.45281 0.2116,-7.67291 v -7.67292 l -1.455208,-0.0331 c -0.800365,-0.0182 -1.574271,-0.0628 -1.719792,-0.0992 -0.145521,-0.0364 -0.562239,-0.081 -0.926041,-0.0992 -1.653504,-0.0827 -2.327405,-2.35993 -1.07036,-3.61697 0.357187,-0.35719 0.773906,-0.64944 0.926041,-0.64944 0.15631,0 0.27661,-0.58755 0.27661,-1.35098 0,-1.12958 -0.109517,-1.43713 -0.668254,-1.87663 l -0.668254,-0.52565 0.07294,-13.88912 0.07294,-13.88912 0.742359,-0.63842 c 0.734903,-0.632 0.799468,-0.63841 6.429289,-0.63841 6.13855,0 7.08645,0.17888 7.38613,1.39387 0.0801,0.32478 0.1116,6.7038 0.07,14.17561 l -0.0757,13.58512 -0.72761,0.58003 c -0.60972,0.48607 -0.7276,0.7831 -0.7276,1.83342 0,1.06301 0.0921,1.28839 0.60619,1.48385 1.43525,0.54568 1.8463,2.44761 0.76349,3.53263 -0.49837,0.49937 -0.96123,0.60964 -3.02948,0.72172 l -2.44124,0.13229 -0.0703,7.52242 c -0.0423,4.52796 0.0293,7.58403 0.18011,7.6772 0.13775,0.0851 0.47797,1.03073 0.75605,2.10132 0.49186,1.89365 0.49268,2.01575 0.0301,4.49364 -0.26153,1.4009 -0.4808,2.75545 -0.48727,3.01011 -0.0103,0.40524 -0.30427,0.46302 -2.35579,0.46302 h -2.344021 z"
         id="path2" />
      <path
         style="fill:#000000"
         d="m 56.817076,171.40739 c -0.326502,-0.13126 -0.834704,-0.62973 -1.129338,-1.1077 -0.519888,-0.8434 -0.533602,-1.21831 -0.464693,-12.7043 l 0.071,-11.83525 0.864548,-0.86475 0.864547,-0.86474 3.915474,-0.0894 c 4.695264,-0.10725 5.928499,0.14415 6.669635,1.35965 0.473428,0.77645 0.516192,1.36613 0.517099,7.13031 l 9.89e-4,6.28385 h 4.630209 4.630209 V 140.0619 121.40877 H 73.95962 c -5.439663,0 -5.568699,-0.14686 -5.568699,-6.33782 0,-4.51393 0.212557,-5.50335 1.308261,-6.08975 0.321216,-0.17191 3.913862,-0.27243 9.736955,-0.27243 9.003124,0 9.242422,0.0135 9.823186,0.55457 0.327396,0.30502 0.707034,0.84855 0.843641,1.20785 0.149286,0.39266 0.248374,12.20805 0.248374,29.61643 0,24.43295 -0.05882,29.10391 -0.376031,29.86312 -0.74173,1.77521 -0.292872,1.73071 -17.271768,1.71209 -8.428032,-0.009 -15.559306,-0.1239 -15.886467,-0.25544 z m 59.310024,-0.0306 c -0.30265,-0.14686 -0.74913,-0.60366 -0.99218,-1.01511 -0.40575,-0.68687 -0.44191,-3.17657 -0.44191,-30.4271 v -29.67901 l 0.7734,-0.77339 0.77339,-0.7734 h 15.84586 15.84585 l 0.7771,0.81037 0.77711,0.81036 0.0848,4.24918 c 0.0916,4.59153 -0.0651,5.40566 -1.21463,6.30989 -0.63142,0.49668 -1.12029,0.5202 -10.8121,0.5202 h -10.15078 v 18.65313 18.65312 l 9.85573,4.1e-4 c 13.09314,5.5e-4 12.35902,-0.38113 12.36537,6.42888 0.003,3.22504 -0.0878,4.35768 -0.39745,4.95646 -0.83473,1.61418 -0.46351,1.58058 -17.24645,1.56093 -9.71054,-0.0114 -15.49369,-0.11538 -15.84311,-0.28492 z m -16.613497,-3.07061 c -0.460769,-2.93459 -0.463366,-3.19784 -0.04633,-4.69636 0.242989,-0.87312 0.556217,-1.82562 0.696067,-2.11666 0.13986,-0.29105 0.28132,-3.92245 0.31437,-8.0698 l 0.0601,-7.54062 -2.376104,-0.0773 c -1.996223,-0.065 -2.472109,-0.16752 -2.976563,-0.64143 -1.071549,-1.00667 -0.528026,-3.18586 0.854755,-3.42703 0.428217,-0.0747 0.544646,-0.33391 0.610305,-1.35882 0.07193,-1.12286 -0.0106,-1.35222 -0.727604,-2.022 l -0.808742,-0.75548 v -13.2638 c 0,-14.53919 0.02706,-14.81524 1.508556,-15.38902 0.477872,-0.18507 2.727781,-0.25356 6.345317,-0.19315 5.49806,0.0918 5.61786,0.10577 6.28385,0.73144 l 0.67894,0.63783 v 13.57071 13.57072 l -0.79375,0.90403 c -0.66079,0.7526 -0.79375,1.13086 -0.79375,2.25816 0,0.94076 0.10593,1.35414 0.34698,1.35414 0.19085,0 0.60756,0.24276 0.92605,0.53947 1.16512,1.08548 0.45908,3.3653 -1.07459,3.46987 -0.32742,0.0223 -1.42875,0.0521 -2.4474,0.0661 l -1.85208,0.0256 -0.0704,7.52913 c -0.0561,6.00603 0.005,7.69203 0.29976,8.33437 0.87302,1.89939 1.08355,3.50262 0.72361,5.51057 -0.18824,1.0501 -0.40586,2.41528 -0.4836,3.03374 l -0.14136,1.12448 h -2.28414 -2.28415 z"
         id="path1" />
    </g>
  </g>
</svg>
